<svg width="25" height="25" viewBox="0 0 25 25" fill="none" xmlns="http://www.w3.org/2000/svg">
<path d="M7.8125 14.0625C9.96986 14.0625 11.7188 12.3136 11.7188 10.1562C11.7188 7.99889 9.96986 6.25 7.8125 6.25C5.65514 6.25 3.90625 7.99889 3.90625 10.1562C3.90625 12.3136 5.65514 14.0625 7.8125 14.0625Z" stroke="black" stroke-width="1.5" stroke-linecap="round" stroke-linejoin="round"/>
<path d="M14.8438 7.8125H24.2188" stroke="black" stroke-width="1.5" stroke-linecap="round" stroke-linejoin="round"/>
<path d="M14.8438 12.5H24.2188" stroke="black" stroke-width="1.5" stroke-linecap="round" stroke-linejoin="round"/>
<path d="M17.1875 17.1875H24.2188" stroke="black" stroke-width="1.5" stroke-linecap="round" stroke-linejoin="round"/>
<path d="M1.75781 18.75C2.10203 17.4056 2.88391 16.214 3.98017 15.363C5.07644 14.5121 6.42473 14.0502 7.8125 14.0502C9.20027 14.0502 10.5486 14.5121 11.6448 15.363C12.7411 16.214 13.523 17.4056 13.8672 18.75" stroke="black" stroke-width="1.5" stroke-linecap="round" stroke-linejoin="round"/>
</svg>
