<svg version="1.1" xmlns="http://www.w3.org/2000/svg" xmlns:xlink="http://www.w3.org/1999/xlink" width="62.000000pt" height="28.000000pt" viewBox="0,0,256,115.60938"><g fill="#0477c9" fill-rule="nonzero" stroke="none" stroke-width="1" stroke-linecap="butt" stroke-linejoin="miter" stroke-miterlimit="10" stroke-dasharray="" stroke-dashoffset="0" font-family="none" font-weight="none" font-size="none" text-anchor="none" style="mix-blend-mode: normal"><g transform="translate(-0.20645,-2.6526) scale(4.12903,4.12903)"><g transform="translate(0,28) scale(0.1,-0.1)"><path d="M302,230c-32,-39 -34,-39 -58,-24c-29,20 -30,20 -156,-118l-80,-88h302h303l-129,133c-71,72 -133,133 -139,134c-5,2 -25,-15 -43,-37zM238,198c18,-18 15,-29 -18,-68l-29,-35l2,45c4,65 19,84 45,58zM570,18c0,-4 -31,-8 -68,-8c-67,0 -68,0 -112,45l-45,45l35,-6l34,-7l-34,43c-34,44 -31,45 22,8c39,-27 41,-23 13,30c-25,44 -20,40 64,-47c50,-52 91,-98 91,-103z"></path></g></g></g></svg>